<?xml version="1.0" encoding="UTF-8" standalone="no"?>
<!DOCTYPE svg PUBLIC "-//W3C//DTD SVG 1.1//EN"
 "http://www.w3.org/Graphics/SVG/1.1/DTD/svg11.dtd">
<!-- Generated by graphviz version 13.1.2 (20250808.2320)
 -->
<!-- Title: G Pages: 1 -->
<svg width="1128pt" height="469pt"
 viewBox="0.00 0.00 1128.00 469.00" xmlns="http://www.w3.org/2000/svg" xmlns:xlink="http://www.w3.org/1999/xlink">
<g id="graph0" class="graph" transform="scale(1 1) rotate(0) translate(18 450.88)">
<title>G</title>
<polygon fill="white" stroke="none" points="-18,18 -18,-450.88 1109.63,-450.88 1109.63,18 -18,18"/>
<text xml:space="preserve" text-anchor="middle" x="545.81" y="-410.88" font-family="DejaVu Sans" font-size="20.00">Критический путь одного голосового turn</text>
<!-- b -->
<g id="node1" class="node">
<title>b</title>
<path fill="white" stroke="#30343b" d="M79.73,-245.07C79.73,-245.07 12,-245.07 12,-245.07 6,-245.07 0,-239.07 0,-233.07 0,-233.07 0,-220.11 0,-220.11 0,-214.11 6,-208.11 12,-208.11 12,-208.11 79.73,-208.11 79.73,-208.11 85.73,-208.11 91.73,-214.11 91.73,-220.11 91.73,-220.11 91.73,-233.07 91.73,-233.07 91.73,-239.07 85.73,-245.07 79.73,-245.07"/>
<text xml:space="preserve" text-anchor="middle" x="45.86" y="-229.59" font-family="DejaVu Sans" font-size="10.00">Browser</text>
<text xml:space="preserve" text-anchor="middle" x="45.86" y="-217.59" font-family="DejaVu Sans" font-size="10.00">Mic / playback</text>
</g>
<!-- g -->
<g id="node2" class="node">
<title>g</title>
<path fill="white" stroke="#30343b" d="M406.86,-306.07C406.86,-306.07 367.92,-306.07 367.92,-306.07 361.92,-306.07 355.92,-300.07 355.92,-294.07 355.92,-294.07 355.92,-281.11 355.92,-281.11 355.92,-275.11 361.92,-269.11 367.92,-269.11 367.92,-269.11 406.86,-269.11 406.86,-269.11 412.86,-269.11 418.86,-275.11 418.86,-281.11 418.86,-281.11 418.86,-294.07 418.86,-294.07 418.86,-300.07 412.86,-306.07 406.86,-306.07"/>
<text xml:space="preserve" text-anchor="middle" x="387.39" y="-290.59" font-family="DejaVu Sans" font-size="10.00">Bun WS</text>
<text xml:space="preserve" text-anchor="middle" x="387.39" y="-278.59" font-family="DejaVu Sans" font-size="10.00">gateway</text>
</g>
<!-- b&#45;&gt;g -->
<g id="edge1" class="edge">
<title>b&#45;&gt;g</title>
<path fill="none" stroke="#4b5563" stroke-width="1.1" d="M83.65,-245.43C96.36,-251.18 110.89,-256.95 124.73,-260.59 201.76,-280.85 295.28,-286.04 347.07,-287.28"/>
<polygon fill="#4b5563" stroke="#4b5563" stroke-width="1.1" points="346.71,-289.8 353.96,-287.43 346.82,-284.76 346.71,-289.8"/>
<text xml:space="preserve" text-anchor="middle" x="213.82" y="-287.64" font-family="DejaVu Sans" font-size="8.00">1 · bounded PCM16 chunks + audio.commit</text>
</g>
<!-- o -->
<g id="node4" class="node">
<title>o</title>
<path fill="white" stroke="#30343b" d="M737.6,-122.59C737.6,-122.59 677.95,-122.59 677.95,-122.59 671.95,-122.59 665.95,-116.59 665.95,-110.59 665.95,-110.59 665.95,-98.59 665.95,-98.59 665.95,-92.59 671.95,-86.59 677.95,-86.59 677.95,-86.59 737.6,-86.59 737.6,-86.59 743.6,-86.59 749.6,-92.59 749.6,-98.59 749.6,-98.59 749.6,-110.59 749.6,-110.59 749.6,-116.59 743.6,-122.59 737.6,-122.59"/>
<text xml:space="preserve" text-anchor="middle" x="707.77" y="-101.59" font-family="DejaVu Sans" font-size="10.00">Orchestrator</text>
</g>
<!-- b&#45;&gt;o -->
<g id="edge14" class="edge">
<title>b&#45;&gt;o</title>
<path fill="none" stroke="#4b5563" stroke-width="1.1" stroke-dasharray="1,5" d="M92.15,-228.63C102.83,-229.03 114.18,-229.38 124.73,-229.59 340.12,-233.73 403.11,-237.07 604.5,-160.59 627.46,-151.87 651.62,-138.84 670.69,-127.55"/>
<polygon fill="#4b5563" stroke="#4b5563" stroke-width="1.1" points="671.97,-129.72 676.84,-123.85 669.37,-125.4 671.97,-129.72"/>
<text xml:space="preserve" text-anchor="middle" x="387.39" y="-230.86" font-family="DejaVu Sans" font-size="8.00">barge&#45;in: stop + interrupt</text>
</g>
<!-- g&#45;&gt;b -->
<g id="edge9" class="edge">
<title>g&#45;&gt;b</title>
<path fill="none" stroke="#4b5563" stroke-width="1.1" d="M356.67,-268.73C341.24,-259.92 321.72,-250.23 302.91,-244.99 235.13,-226.1 153.58,-223.51 101.01,-224.3"/>
<polygon fill="#4b5563" stroke="#4b5563" stroke-width="1.1" points="101.01,-221.78 93.85,-224.44 101.1,-226.82 101.01,-221.78"/>
<text xml:space="preserve" text-anchor="middle" x="213.82" y="-247.39" font-family="DejaVu Sans" font-size="8.00">9 · generationId + ordered MP3</text>
</g>
<!-- s -->
<g id="node3" class="node">
<title>s</title>
<path fill="white" stroke="#30343b" d="M748.98,-370.07C748.98,-370.07 666.57,-370.07 666.57,-370.07 660.57,-370.07 654.57,-364.07 654.57,-358.07 654.57,-358.07 654.57,-345.11 654.57,-345.11 654.57,-339.11 660.57,-333.11 666.57,-333.11 666.57,-333.11 748.98,-333.11 748.98,-333.11 754.98,-333.11 760.98,-339.11 760.98,-345.11 760.98,-345.11 760.98,-358.07 760.98,-358.07 760.98,-364.07 754.98,-370.07 748.98,-370.07"/>
<text xml:space="preserve" text-anchor="middle" x="707.77" y="-354.59" font-family="DejaVu Sans" font-size="10.00">OpenRouter STT</text>
<text xml:space="preserve" text-anchor="middle" x="707.77" y="-342.59" font-family="DejaVu Sans" font-size="10.00">chat/completions</text>
</g>
<!-- g&#45;&gt;s -->
<g id="edge2" class="edge">
<title>g&#45;&gt;s</title>
<path fill="none" stroke="#4b5563" stroke-width="1.1" d="M399.08,-306.33C412.75,-328.16 438.67,-363.1 471.88,-377.59 529.29,-402.64 601.76,-388.57 650.92,-373.12"/>
<polygon fill="#4b5563" stroke="#4b5563" stroke-width="1.1" points="651.55,-375.56 657.62,-370.95 650,-370.77 651.55,-375.56"/>
<text xml:space="preserve" text-anchor="middle" x="538.19" y="-393.68" font-family="DejaVu Sans" font-size="8.00">2 · one base64 WAV input_audio</text>
</g>
<!-- g&#45;&gt;s -->
<g id="edge16" class="edge">
<title>g&#45;&gt;s</title>
<path fill="none" stroke="#4b5563" stroke-width="1.1" stroke-dasharray="1,5" d="M412.82,-306.53C428.71,-317.72 450.41,-330.96 471.88,-337.59 528.83,-355.18 597.18,-357.27 645.42,-355.81"/>
<polygon fill="#4b5563" stroke="#4b5563" stroke-width="1.1" points="645.42,-358.33 652.52,-355.55 645.24,-353.29 645.42,-358.33"/>
<text xml:space="preserve" text-anchor="middle" x="538.19" y="-358.4" font-family="DejaVu Sans" font-size="8.00">AbortSignal + stale&#45;turn drop</text>
</g>
<!-- g&#45;&gt;o -->
<g id="edge4" class="edge">
<title>g&#45;&gt;o</title>
<path fill="none" stroke="#4b5563" stroke-width="1.1" d="M418.98,-274.58C434.64,-268.19 454.09,-260.67 471.88,-254.99 529.77,-236.47 552.67,-253.34 604.5,-221.59 642.36,-198.4 673.8,-156.69 691.43,-129.84"/>
<polygon fill="#4b5563" stroke="#4b5563" stroke-width="1.1" points="693.36,-131.51 695.13,-124.09 689.12,-128.78 693.36,-131.51"/>
<text xml:space="preserve" text-anchor="middle" x="538.19" y="-257.39" font-family="DejaVu Sans" font-size="8.00">4 · current final user turn</text>
</g>
<!-- s&#45;&gt;g -->
<g id="edge3" class="edge">
<title>s&#45;&gt;g</title>
<path fill="none" stroke="#4b5563" stroke-width="1.1" d="M654.09,-338.32C638.19,-334.48 620.67,-330.4 604.5,-326.99 543.06,-314.01 471.25,-301.42 427.83,-294.1"/>
<polygon fill="#4b5563" stroke="#4b5563" stroke-width="1.1" points="428.43,-291.64 420.92,-292.94 427.6,-296.61 428.43,-291.64"/>
<text xml:space="preserve" text-anchor="middle" x="538.19" y="-329.39" font-family="DejaVu Sans" font-size="8.00">3 · one final transcript</text>
</g>
<!-- l -->
<g id="node5" class="node">
<title>l</title>
<path fill="white" stroke="#30343b" d="M1073.66,-93.59C1073.66,-93.59 1006.87,-93.59 1006.87,-93.59 1000.87,-93.59 994.87,-87.59 994.87,-81.59 994.87,-81.59 994.87,-69.59 994.87,-69.59 994.87,-63.59 1000.87,-57.59 1006.87,-57.59 1006.87,-57.59 1073.66,-57.59 1073.66,-57.59 1079.66,-57.59 1085.66,-63.59 1085.66,-69.59 1085.66,-69.59 1085.66,-81.59 1085.66,-81.59 1085.66,-87.59 1079.66,-93.59 1073.66,-93.59"/>
<text xml:space="preserve" text-anchor="middle" x="1040.27" y="-72.59" font-family="DejaVu Sans" font-size="10.00">Codex + Luna</text>
</g>
<!-- o&#45;&gt;l -->
<g id="edge5" class="edge">
<title>o&#45;&gt;l</title>
<path fill="none" stroke="#4b5563" stroke-width="1.1" d="M749.96,-100.97C809.58,-95.74 919.96,-86.06 985.79,-80.28"/>
<polygon fill="#4b5563" stroke="#4b5563" stroke-width="1.1" points="985.77,-82.81 992.72,-79.67 985.33,-77.79 985.77,-82.81"/>
<text xml:space="preserve" text-anchor="middle" x="883.48" y="-97.61" font-family="DejaVu Sans" font-size="8.00">5 · turn/start + compact state</text>
</g>
<!-- o&#45;&gt;l -->
<g id="edge13" class="edge">
<title>o&#45;&gt;l</title>
<path fill="none" stroke="#4b5563" stroke-width="1.1" stroke-dasharray="5,2" d="M717.56,-123.01C732.29,-151.47 764.96,-205.08 811.04,-226.59 869.39,-253.81 900.46,-259.31 955.91,-226.59 1001.43,-199.72 1023.81,-138.1 1033.32,-102.43"/>
<polygon fill="#4b5563" stroke="#4b5563" stroke-width="1.1" points="1035.73,-103.17 1035.05,-95.58 1030.84,-101.94 1035.73,-103.17"/>
<text xml:space="preserve" text-anchor="middle" x="883.48" y="-251.51" font-family="DejaVu Sans" font-size="8.00">tool result</text>
</g>
<!-- o&#45;&gt;l -->
<g id="edge15" class="edge">
<title>o&#45;&gt;l</title>
<path fill="none" stroke="#4b5563" stroke-width="1.1" stroke-dasharray="1,5" d="M724.26,-122.86C742.59,-142.93 775.19,-173.99 811.04,-186.59 871.79,-207.93 898.31,-215.36 955.91,-186.59 991.08,-169.02 1015.27,-128.77 1028.2,-101.88"/>
<polygon fill="#4b5563" stroke="#4b5563" stroke-width="1.1" points="1030.41,-103.1 1031.15,-95.51 1025.83,-100.98 1030.41,-103.1"/>
<text xml:space="preserve" text-anchor="middle" x="883.48" y="-207.88" font-family="DejaVu Sans" font-size="8.00">turn/interrupt</text>
</g>
<!-- d -->
<g id="node6" class="node">
<title>d</title>
<path fill="white" stroke="#30343b" d="M84.99,-174.31C84.99,-176.12 67.45,-177.59 45.86,-177.59 24.27,-177.59 6.74,-176.12 6.74,-174.31 6.74,-174.31 6.74,-144.86 6.74,-144.86 6.74,-143.05 24.27,-141.59 45.86,-141.59 67.45,-141.59 84.99,-143.05 84.99,-144.86 84.99,-144.86 84.99,-174.31 84.99,-174.31"/>
<path fill="none" stroke="#30343b" d="M84.99,-174.31C84.99,-172.51 67.45,-171.04 45.86,-171.04 24.27,-171.04 6.74,-172.51 6.74,-174.31"/>
<text xml:space="preserve" text-anchor="middle" x="45.86" y="-156.59" font-family="DejaVu Sans" font-size="10.00">Booking DB</text>
</g>
<!-- o&#45;&gt;d -->
<g id="edge11" class="edge">
<title>o&#45;&gt;d</title>
<path fill="none" stroke="#4b5563" stroke-width="1.1" stroke-dasharray="5,2" d="M665.77,-106.89C570.57,-112.43 327.26,-127.67 124.73,-149.59 114.77,-150.66 104.12,-151.95 93.98,-153.23"/>
<polygon fill="#4b5563" stroke="#4b5563" stroke-width="1.1" points="93.72,-150.72 86.89,-154.14 94.36,-155.72 93.72,-150.72"/>
<text xml:space="preserve" text-anchor="middle" x="387.39" y="-132.08" font-family="DejaVu Sans" font-size="8.00">10 · create / patch</text>
</g>
<!-- t -->
<g id="node7" class="node">
<title>t</title>
<path fill="white" stroke="#30343b" d="M1079.63,-248.07C1079.63,-248.07 1000.91,-248.07 1000.91,-248.07 994.91,-248.07 988.91,-242.07 988.91,-236.07 988.91,-236.07 988.91,-223.11 988.91,-223.11 988.91,-217.11 994.91,-211.11 1000.91,-211.11 1000.91,-211.11 1079.63,-211.11 1079.63,-211.11 1085.63,-211.11 1091.63,-217.11 1091.63,-223.11 1091.63,-223.11 1091.63,-236.07 1091.63,-236.07 1091.63,-242.07 1085.63,-248.07 1079.63,-248.07"/>
<text xml:space="preserve" text-anchor="middle" x="1040.27" y="-232.59" font-family="DejaVu Sans" font-size="10.00">OpenRouter TTS</text>
<text xml:space="preserve" text-anchor="middle" x="1040.27" y="-220.59" font-family="DejaVu Sans" font-size="10.00">native Bun fetch</text>
</g>
<!-- o&#45;&gt;t -->
<g id="edge7" class="edge">
<title>o&#45;&gt;t</title>
<path fill="none" stroke="#4b5563" stroke-width="1.1" d="M748.45,-122.94C767.14,-131.04 789.92,-140.17 811.04,-146.59 873.9,-165.68 895.04,-151.26 955.91,-175.99 974.4,-183.5 993.25,-195.21 1008.34,-205.77"/>
<polygon fill="#4b5563" stroke="#4b5563" stroke-width="1.1" points="1006.75,-207.73 1014.07,-209.87 1009.68,-203.63 1006.75,-207.73"/>
<text xml:space="preserve" text-anchor="middle" x="883.48" y="-178.39" font-family="DejaVu Sans" font-size="8.00">7 · sanitized phrase · HTTP POST</text>
</g>
<!-- o&#45;&gt;t -->
<g id="edge17" class="edge">
<title>o&#45;&gt;t</title>
<path fill="none" stroke="#4b5563" stroke-width="1.1" stroke-dasharray="1,5" d="M750.06,-106.34C810.87,-109.51 921.08,-117.65 955.91,-135.99 985.18,-151.41 1009.09,-181.54 1023.68,-203.46"/>
<polygon fill="#4b5563" stroke="#4b5563" stroke-width="1.1" points="1021.52,-204.75 1027.54,-209.43 1025.75,-202.02 1021.52,-204.75"/>
<text xml:space="preserve" text-anchor="middle" x="883.48" y="-138.39" font-family="DejaVu Sans" font-size="8.00">AbortSignal + stale&#45;generation drop</text>
</g>
<!-- l&#45;&gt;o -->
<g id="edge6" class="edge">
<title>l&#45;&gt;o</title>
<path fill="none" stroke="#4b5563" stroke-width="1.1" d="M1020.98,-57.3C1005.25,-42.94 981.15,-24.08 955.91,-15.99 894.6,3.68 871.37,6.51 811.04,-15.99 777.08,-28.65 746.91,-58.24 728.29,-79.75"/>
<polygon fill="#4b5563" stroke="#4b5563" stroke-width="1.1" points="726.46,-78.01 723.74,-85.14 730.31,-81.26 726.46,-78.01"/>
<text xml:space="preserve" text-anchor="middle" x="883.48" y="-18.39" font-family="DejaVu Sans" font-size="8.00">6 · agentMessage delta</text>
</g>
<!-- l&#45;&gt;o -->
<g id="edge10" class="edge">
<title>l&#45;&gt;o</title>
<path fill="none" stroke="#4b5563" stroke-width="1.1" stroke-dasharray="5,2" d="M994.72,-68.77C948.44,-62.93 874.13,-57.04 811.04,-67.99 793.16,-71.09 774.27,-77.03 757.65,-83.24"/>
<polygon fill="#4b5563" stroke="#4b5563" stroke-width="1.1" points="757.06,-80.77 751.25,-85.7 758.87,-85.47 757.06,-80.77"/>
<text xml:space="preserve" text-anchor="middle" x="883.48" y="-70.39" font-family="DejaVu Sans" font-size="8.00">tool request</text>
</g>
<!-- d&#45;&gt;o -->
<g id="edge12" class="edge">
<title>d&#45;&gt;o</title>
<path fill="none" stroke="#4b5563" stroke-width="1.1" stroke-dasharray="5,2" d="M85.41,-160.98C176.46,-163.59 411.72,-166.27 604.5,-133.59 622.01,-130.62 640.81,-125.78 657.45,-120.91"/>
<polygon fill="#4b5563" stroke="#4b5563" stroke-width="1.1" points="658.17,-123.32 664.34,-118.84 656.72,-118.49 658.17,-123.32"/>
<text xml:space="preserve" text-anchor="middle" x="387.39" y="-161.54" font-family="DejaVu Sans" font-size="8.00">tool result + event</text>
</g>
<!-- t&#45;&gt;g -->
<g id="edge8" class="edge">
<title>t&#45;&gt;g</title>
<path fill="none" stroke="#4b5563" stroke-width="1.1" d="M1002.44,-248.38C988.26,-254.72 971.69,-261.07 955.91,-264.59 761.92,-307.76 521.64,-297.21 428.18,-290.77"/>
<polygon fill="#4b5563" stroke="#4b5563" stroke-width="1.1" points="428.36,-288.26 421,-290.26 428,-293.28 428.36,-288.26"/>
<text xml:space="preserve" text-anchor="middle" x="707.77" y="-298.91" font-family="DejaVu Sans" font-size="8.00">8 · complete audio/mpeg segment</text>
</g>
</g>
</svg>
