<?xml version="1.0" encoding="UTF-8" standalone="no"?>
<!DOCTYPE svg PUBLIC "-//W3C//DTD SVG 1.1//EN"
 "http://www.w3.org/Graphics/SVG/1.1/DTD/svg11.dtd">
<!-- Generated by graphviz version 13.1.2 (20250808.2320)
 -->
<!-- Title: G Pages: 1 -->
<svg width="925pt" height="715pt"
 viewBox="0.00 0.00 925.00 715.00" xmlns="http://www.w3.org/2000/svg" xmlns:xlink="http://www.w3.org/1999/xlink">
<g id="graph0" class="graph" transform="scale(1 1) rotate(0) translate(18 697.37)">
<title>G</title>
<polygon fill="white" stroke="none" points="-18,18 -18,-697.37 906.89,-697.37 906.89,18 -18,18"/>
<text xml:space="preserve" text-anchor="middle" x="444.45" y="-657.37" font-family="DejaVu Sans" font-size="20.00">Воронка сайта Botamin</text>
<!-- visit -->
<g id="node1" class="node">
<title>visit</title>
<path fill="white" stroke="#30343b" d="M326.4,-634.2C326.4,-634.2 12,-634.2 12,-634.2 6,-634.2 0,-628.2 0,-622.2 0,-622.2 0,-595.8 0,-595.8 0,-589.8 6,-583.8 12,-583.8 12,-583.8 326.4,-583.8 326.4,-583.8 332.4,-583.8 338.4,-589.8 338.4,-595.8 338.4,-595.8 338.4,-622.2 338.4,-622.2 338.4,-628.2 332.4,-634.2 326.4,-634.2"/>
<text xml:space="preserve" text-anchor="middle" x="169.2" y="-618" font-family="DejaVu Sans" font-size="10.00">1 · VISIT</text>
<text xml:space="preserve" text-anchor="middle" x="169.2" y="-606" font-family="DejaVu Sans" font-size="10.00">Понять оффер и кейсы</text>
<text xml:space="preserve" text-anchor="middle" x="169.2" y="-594" font-family="DejaVu Sans" font-size="10.00">event: landing.viewed</text>
</g>
<!-- start -->
<g id="node2" class="node">
<title>start</title>
<path fill="white" stroke="#30343b" d="M313.8,-550.8C313.8,-550.8 24.6,-550.8 24.6,-550.8 18.6,-550.8 12.6,-544.8 12.6,-538.8 12.6,-538.8 12.6,-512.4 12.6,-512.4 12.6,-506.4 18.6,-500.4 24.6,-500.4 24.6,-500.4 313.8,-500.4 313.8,-500.4 319.8,-500.4 325.8,-506.4 325.8,-512.4 325.8,-512.4 325.8,-538.8 325.8,-538.8 325.8,-544.8 319.8,-550.8 313.8,-550.8"/>
<text xml:space="preserve" text-anchor="middle" x="169.2" y="-534.6" font-family="DejaVu Sans" font-size="10.00">2 · VOICE START</text>
<text xml:space="preserve" text-anchor="middle" x="169.2" y="-522.6" font-family="DejaVu Sans" font-size="10.00">CTA → mic consent</text>
<text xml:space="preserve" text-anchor="middle" x="169.2" y="-510.6" font-family="DejaVu Sans" font-size="10.00">event: conversation.started</text>
</g>
<!-- visit&#45;&gt;start -->
<g id="edge1" class="edge">
<title>visit&#45;&gt;start</title>
<path fill="none" stroke="#4b5563" stroke-width="1.1" d="M169.2,-583.58C169.2,-576.16 169.2,-567.88 169.2,-559.98"/>
<polygon fill="#4b5563" stroke="#4b5563" stroke-width="1.1" points="171.72,-560.15 169.2,-552.95 166.68,-560.15 171.72,-560.15"/>
</g>
<!-- d1 -->
<g id="node9" class="node">
<title>d1</title>
<polygon fill="white" stroke="#30343b" points="882.89,-628.2 783.51,-628.2 783.51,-589.8 888.89,-589.8 888.89,-622.2 882.89,-628.2"/>
<polyline fill="none" stroke="#30343b" points="882.89,-628.2 882.89,-622.2"/>
<polyline fill="none" stroke="#30343b" points="888.89,-622.2 882.89,-622.2"/>
<text xml:space="preserve" text-anchor="middle" x="836.2" y="-612" font-family="DejaVu Sans" font-size="10.00">drop&#45;off:</text>
<text xml:space="preserve" text-anchor="middle" x="836.2" y="-600" font-family="DejaVu Sans" font-size="10.00">неясный оффер</text>
</g>
<!-- visit&#45;&gt;d1 -->
<g id="edge9" class="edge">
<title>visit&#45;&gt;d1</title>
<path fill="none" stroke="#4b5563" stroke-width="1.1" stroke-dasharray="1,5" d="M300.32,-634.69C320.79,-637.81 341.76,-640.49 361.7,-642.2 405.87,-645.98 717.31,-651.32 760.7,-642.2 774.01,-639.4 787.84,-634.11 799.97,-628.56"/>
</g>
<!-- disc -->
<g id="node3" class="node">
<title>disc</title>
<path fill="white" stroke="#30343b" d="M301.2,-467.4C301.2,-467.4 37.2,-467.4 37.2,-467.4 31.2,-467.4 25.2,-461.4 25.2,-455.4 25.2,-455.4 25.2,-429 25.2,-429 25.2,-423 31.2,-417 37.2,-417 37.2,-417 301.2,-417 301.2,-417 307.2,-417 313.2,-423 313.2,-429 313.2,-429 313.2,-455.4 313.2,-455.4 313.2,-461.4 307.2,-467.4 301.2,-467.4"/>
<text xml:space="preserve" text-anchor="middle" x="169.2" y="-451.2" font-family="DejaVu Sans" font-size="10.00">3 · DISCOVERY</text>
<text xml:space="preserve" text-anchor="middle" x="169.2" y="-439.2" font-family="DejaVu Sans" font-size="10.00">Задача, канал, pain</text>
<text xml:space="preserve" text-anchor="middle" x="169.2" y="-427.2" font-family="DejaVu Sans" font-size="10.00">event: discovery.completed</text>
</g>
<!-- start&#45;&gt;disc -->
<g id="edge2" class="edge">
<title>start&#45;&gt;disc</title>
<path fill="none" stroke="#4b5563" stroke-width="1.1" d="M169.2,-500.18C169.2,-492.76 169.2,-484.48 169.2,-476.58"/>
<polygon fill="#4b5563" stroke="#4b5563" stroke-width="1.1" points="171.72,-476.75 169.2,-469.55 166.68,-476.75 171.72,-476.75"/>
</g>
<!-- d2 -->
<g id="node10" class="node">
<title>d2</title>
<polygon fill="white" stroke="#30343b" points="754.82,-628.2 679.58,-628.2 679.58,-589.8 760.82,-589.8 760.82,-622.2 754.82,-628.2"/>
<polyline fill="none" stroke="#30343b" points="754.82,-628.2 754.82,-622.2"/>
<polyline fill="none" stroke="#30343b" points="760.82,-622.2 754.82,-622.2"/>
<text xml:space="preserve" text-anchor="middle" x="720.2" y="-612" font-family="DejaVu Sans" font-size="10.00">drop&#45;off:</text>
<text xml:space="preserve" text-anchor="middle" x="720.2" y="-600" font-family="DejaVu Sans" font-size="10.00">mic denied</text>
</g>
<!-- start&#45;&gt;d2 -->
<g id="edge10" class="edge">
<title>start&#45;&gt;d2</title>
<path fill="none" stroke="#4b5563" stroke-width="1.1" stroke-dasharray="1,5" d="M326.22,-531.69C425.76,-538.06 556.37,-552.26 668.2,-583.8 673.38,-585.26 678.68,-587.18 683.83,-589.3"/>
</g>
<!-- value -->
<g id="node4" class="node">
<title>value</title>
<path fill="white" stroke="#30343b" d="M288.6,-384C288.6,-384 49.8,-384 49.8,-384 43.8,-384 37.8,-378 37.8,-372 37.8,-372 37.8,-345.6 37.8,-345.6 37.8,-339.6 43.8,-333.6 49.8,-333.6 49.8,-333.6 288.6,-333.6 288.6,-333.6 294.6,-333.6 300.6,-339.6 300.6,-345.6 300.6,-345.6 300.6,-372 300.6,-372 300.6,-378 294.6,-384 288.6,-384"/>
<text xml:space="preserve" text-anchor="middle" x="169.2" y="-367.8" font-family="DejaVu Sans" font-size="10.00">4 · VALUE</text>
<text xml:space="preserve" text-anchor="middle" x="169.2" y="-355.8" font-family="DejaVu Sans" font-size="10.00">Релевантный use case + proof</text>
<text xml:space="preserve" text-anchor="middle" x="169.2" y="-343.8" font-family="DejaVu Sans" font-size="10.00">event: value.presented</text>
</g>
<!-- disc&#45;&gt;value -->
<g id="edge3" class="edge">
<title>disc&#45;&gt;value</title>
<path fill="none" stroke="#4b5563" stroke-width="1.1" d="M169.2,-416.78C169.2,-409.36 169.2,-401.08 169.2,-393.18"/>
<polygon fill="#4b5563" stroke="#4b5563" stroke-width="1.1" points="171.72,-393.35 169.2,-386.15 166.68,-393.35 171.72,-393.35"/>
</g>
<!-- d3 -->
<g id="node11" class="node">
<title>d3</title>
<polygon fill="white" stroke="#30343b" points="650.91,-628.2 497.49,-628.2 497.49,-589.8 656.91,-589.8 656.91,-622.2 650.91,-628.2"/>
<polyline fill="none" stroke="#30343b" points="650.91,-628.2 650.91,-622.2"/>
<polyline fill="none" stroke="#30343b" points="656.91,-622.2 650.91,-622.2"/>
<text xml:space="preserve" text-anchor="middle" x="577.2" y="-612" font-family="DejaVu Sans" font-size="10.00">drop&#45;off:</text>
<text xml:space="preserve" text-anchor="middle" x="577.2" y="-600" font-family="DejaVu Sans" font-size="10.00">слишком много вопросов</text>
</g>
<!-- disc&#45;&gt;d3 -->
<g id="edge11" class="edge">
<title>disc&#45;&gt;d3</title>
<path fill="none" stroke="#4b5563" stroke-width="1.1" stroke-dasharray="1,5" d="M246.27,-467.76C275.02,-477.36 307.81,-488.84 337.2,-500.4 409.44,-528.82 491.57,-566.94 538.6,-589.35"/>
</g>
<!-- intent -->
<g id="node5" class="node">
<title>intent</title>
<path fill="white" stroke="#30343b" d="M276,-300.6C276,-300.6 62.4,-300.6 62.4,-300.6 56.4,-300.6 50.4,-294.6 50.4,-288.6 50.4,-288.6 50.4,-262.2 50.4,-262.2 50.4,-256.2 56.4,-250.2 62.4,-250.2 62.4,-250.2 276,-250.2 276,-250.2 282,-250.2 288,-256.2 288,-262.2 288,-262.2 288,-288.6 288,-288.6 288,-294.6 282,-300.6 276,-300.6"/>
<text xml:space="preserve" text-anchor="middle" x="169.2" y="-284.4" font-family="DejaVu Sans" font-size="10.00">5 · INTENT</text>
<text xml:space="preserve" text-anchor="middle" x="169.2" y="-272.4" font-family="DejaVu Sans" font-size="10.00">Согласие на следующий шаг</text>
<text xml:space="preserve" text-anchor="middle" x="169.2" y="-260.4" font-family="DejaVu Sans" font-size="10.00">event: booking.offered</text>
</g>
<!-- value&#45;&gt;intent -->
<g id="edge4" class="edge">
<title>value&#45;&gt;intent</title>
<path fill="none" stroke="#4b5563" stroke-width="1.1" d="M169.2,-333.38C169.2,-325.96 169.2,-317.68 169.2,-309.78"/>
<polygon fill="#4b5563" stroke="#4b5563" stroke-width="1.1" points="171.72,-309.95 169.2,-302.75 166.68,-309.95 171.72,-309.95"/>
</g>
<!-- booking -->
<g id="node6" class="node">
<title>booking</title>
<path fill="white" stroke="#30343b" stroke-width="2" d="M263.4,-217.2C263.4,-217.2 75,-217.2 75,-217.2 69,-217.2 63,-211.2 63,-205.2 63,-205.2 63,-178.8 63,-178.8 63,-172.8 69,-166.8 75,-166.8 75,-166.8 263.4,-166.8 263.4,-166.8 269.4,-166.8 275.4,-172.8 275.4,-178.8 275.4,-178.8 275.4,-205.2 275.4,-205.2 275.4,-211.2 269.4,-217.2 263.4,-217.2"/>
<text xml:space="preserve" text-anchor="middle" x="169.2" y="-201" font-family="DejaVu Sans" font-size="10.00">6 · BOOKING</text>
<text xml:space="preserve" text-anchor="middle" x="169.2" y="-189" font-family="DejaVu Sans" font-size="10.00">Минимальный контакт → bookingId</text>
<text xml:space="preserve" text-anchor="middle" x="169.2" y="-177" font-family="DejaVu Sans" font-size="10.00">event: booking.created</text>
</g>
<!-- intent&#45;&gt;booking -->
<g id="edge5" class="edge">
<title>intent&#45;&gt;booking</title>
<path fill="none" stroke="#4b5563" stroke-width="1.1" d="M169.2,-249.98C169.2,-242.63 169.2,-234.43 169.2,-226.6"/>
<polygon fill="#4b5563" stroke="#4b5563" stroke-width="1.1" points="171.72,-226.83 169.2,-219.63 166.68,-226.83 171.72,-226.83"/>
</g>
<!-- d4 -->
<g id="node12" class="node">
<title>d4</title>
<polygon fill="white" stroke="#30343b" points="468.51,-628.2 361.89,-628.2 361.89,-589.8 474.51,-589.8 474.51,-622.2 468.51,-628.2"/>
<polyline fill="none" stroke="#30343b" points="468.51,-628.2 468.51,-622.2"/>
<polyline fill="none" stroke="#30343b" points="474.51,-622.2 468.51,-622.2"/>
<text xml:space="preserve" text-anchor="middle" x="418.2" y="-612" font-family="DejaVu Sans" font-size="10.00">drop&#45;off:</text>
<text xml:space="preserve" text-anchor="middle" x="418.2" y="-600" font-family="DejaVu Sans" font-size="10.00">нет доверия / fit</text>
</g>
<!-- intent&#45;&gt;d4 -->
<g id="edge12" class="edge">
<title>intent&#45;&gt;d4</title>
<path fill="none" stroke="#4b5563" stroke-width="1.1" stroke-dasharray="1,5" d="M262.91,-301.01C280.96,-309.1 298.48,-319.72 312.2,-333.6 386.33,-408.61 409.84,-541.15 416.16,-589.6"/>
</g>
<!-- qual -->
<g id="node7" class="node">
<title>qual</title>
<path fill="white" stroke="#30343b" d="M250.8,-133.8C250.8,-133.8 87.6,-133.8 87.6,-133.8 81.6,-133.8 75.6,-127.8 75.6,-121.8 75.6,-121.8 75.6,-95.4 75.6,-95.4 75.6,-89.4 81.6,-83.4 87.6,-83.4 87.6,-83.4 250.8,-83.4 250.8,-83.4 256.8,-83.4 262.8,-89.4 262.8,-95.4 262.8,-95.4 262.8,-121.8 262.8,-121.8 262.8,-127.8 256.8,-133.8 250.8,-133.8"/>
<text xml:space="preserve" text-anchor="middle" x="169.2" y="-117.6" font-family="DejaVu Sans" font-size="10.00">7 · QUALIFICATION</text>
<text xml:space="preserve" text-anchor="middle" x="169.2" y="-105.6" font-family="DejaVu Sans" font-size="10.00">3–5 вопросов после брони</text>
<text xml:space="preserve" text-anchor="middle" x="169.2" y="-93.6" font-family="DejaVu Sans" font-size="10.00">event: qualification.updated</text>
</g>
<!-- booking&#45;&gt;qual -->
<g id="edge6" class="edge">
<title>booking&#45;&gt;qual</title>
<path fill="none" stroke="#4b5563" stroke-width="1.1" d="M169.2,-166.14C169.2,-158.73 169.2,-150.5 169.2,-142.65"/>
<polygon fill="#4b5563" stroke="#4b5563" stroke-width="1.1" points="171.72,-142.9 169.2,-135.7 166.68,-142.9 171.72,-142.9"/>
</g>
<!-- handoff -->
<g id="node8" class="node">
<title>handoff</title>
<path fill="white" stroke="#30343b" d="M238.2,-50.4C238.2,-50.4 100.2,-50.4 100.2,-50.4 94.2,-50.4 88.2,-44.4 88.2,-38.4 88.2,-38.4 88.2,-12 88.2,-12 88.2,-6 94.2,0 100.2,0 100.2,0 238.2,0 238.2,0 244.2,0 250.2,-6 250.2,-12 250.2,-12 250.2,-38.4 250.2,-38.4 250.2,-44.4 244.2,-50.4 238.2,-50.4"/>
<text xml:space="preserve" text-anchor="middle" x="169.2" y="-34.2" font-family="DejaVu Sans" font-size="10.00">8 · HANDOFF</text>
<text xml:space="preserve" text-anchor="middle" x="169.2" y="-22.2" font-family="DejaVu Sans" font-size="10.00">Console/push payload</text>
<text xml:space="preserve" text-anchor="middle" x="169.2" y="-10.2" font-family="DejaVu Sans" font-size="10.00">event: notification.sent</text>
</g>
<!-- booking&#45;&gt;handoff -->
<g id="edge8" class="edge">
<title>booking&#45;&gt;handoff</title>
<path fill="none" stroke="#4b5563" stroke-width="1.1" stroke-dasharray="5,2" d="M240.25,-165.89C253.78,-157.78 266.2,-147.27 274.2,-133.8 285.64,-114.54 285.64,-102.66 274.2,-83.4 267.5,-72.13 257.72,-62.93 246.78,-55.48"/>
<polygon fill="#4b5563" stroke="#4b5563" stroke-width="1.1" points="248.28,-53.45 240.85,-51.72 245.58,-57.71 248.28,-53.45"/>
<text xml:space="preserve" text-anchor="middle" x="316.68" y="-106.2" font-family="DejaVu Sans" font-size="8.00">skip qualification</text>
</g>
<!-- qual&#45;&gt;handoff -->
<g id="edge7" class="edge">
<title>qual&#45;&gt;handoff</title>
<path fill="none" stroke="#4b5563" stroke-width="1.1" d="M169.2,-83.18C169.2,-75.76 169.2,-67.48 169.2,-59.58"/>
<polygon fill="#4b5563" stroke="#4b5563" stroke-width="1.1" points="171.72,-59.75 169.2,-52.55 166.68,-59.75 171.72,-59.75"/>
</g>
</g>
</svg>
